<svg width="200" height="31" viewBox="0 0 200 31" xmlns="http://www.w3.org/2000/svg"><title>Untitled</title><g fill="#C00027" fill-rule="evenodd"><path d="M6.465 13.17h4.31c.58 0 1.14-.056 1.68-.167.538-.11 1.02-.296 1.45-.56.428-.26.774-.62 1.036-1.077.263-.456.395-1.03.395-1.72 0-.746-.173-1.347-.518-1.803-.346-.456-.788-.808-1.327-1.057-.538-.248-1.14-.407-1.802-.476-.664-.07-1.3-.104-1.907-.104H6.466v6.963zM0 .734h10.9c1.52 0 2.957.14 4.31.415 1.354.276 2.535.753 3.544 1.43 1.01.677 1.81 1.59 2.404 2.735.593 1.147.89 2.59.89 4.33 0 1.714-.275 3.15-.828 4.31-.553 1.162-1.312 2.088-2.28 2.778-.967.69-2.113 1.18-3.44 1.472-1.326.29-2.763.435-4.31.435H6.466v11.44H0V.734zM32.34 12.88h3.81c.58 0 1.196-.022 1.846-.064.648-.04 1.236-.165 1.76-.373.526-.207.96-.53 1.306-.974.346-.442.518-1.064.518-1.865 0-.746-.152-1.34-.455-1.783-.305-.44-.69-.78-1.16-1.015-.47-.234-1.01-.394-1.617-.477-.608-.083-1.202-.124-1.782-.124H32.34v6.673zM25.872.734H37.23c1.49 0 2.907.145 4.247.435 1.34.29 2.514.774 3.523 1.45 1.008.678 1.81 1.59 2.404 2.737.593 1.146.89 2.576.89 4.29 0 2.07-.538 3.833-1.616 5.284-1.077 1.45-2.652 2.37-4.724 2.756l7.46 12.393h-7.75l-6.135-11.73h-3.19v11.73h-6.467V.734zM58.137 15.506c0 1.382.213 2.646.642 3.792.426 1.147 1.04 2.142 1.843 2.984.8.844 1.76 1.5 2.88 1.97 1.12.47 2.37.704 3.75.704 1.383 0 2.633-.235 3.752-.705 1.12-.468 2.08-1.124 2.88-1.968.802-.842 1.416-1.837 1.845-2.984.428-1.146.642-2.41.642-3.792 0-1.354-.214-2.61-.642-3.77-.43-1.162-1.043-2.163-1.844-3.006-.802-.843-1.762-1.5-2.88-1.97-1.12-.468-2.37-.704-3.752-.704-1.382 0-2.632.236-3.75.705-1.12.47-2.08 1.127-2.88 1.97-.803.843-1.418 1.844-1.845 3.005-.43 1.16-.643 2.417-.643 3.77m-6.715 0c0-2.347.394-4.475 1.18-6.382.79-1.906 1.887-3.53 3.296-4.87 1.41-1.34 3.08-2.368 5.015-3.087C62.847.448 64.96.088 67.253.088c2.294 0 4.408.36 6.343 1.078 1.933.72 3.605 1.748 5.014 3.088 1.41 1.34 2.507 2.963 3.296 4.87.787 1.906 1.18 4.034 1.18 6.382 0 2.35-.393 4.476-1.18 6.382-.79 1.907-1.886 3.53-3.296 4.87-1.41 1.34-3.08 2.37-5.014 3.088-1.935.718-4.05 1.078-6.342 1.078-2.293 0-4.407-.36-6.34-1.078-1.935-.718-3.607-1.747-5.016-3.087-1.41-1.342-2.507-2.965-3.295-4.872-.787-1.906-1.18-4.033-1.18-6.382M87.644.735h19.687v5.97H94.11v5.966h12.226v5.97H94.11v11.44h-6.466V.734M111.9.735h6.465V30.08H111.9V.734zM154.91 12.88h3.814c.58 0 1.195-.022 1.844-.064.65-.04 1.236-.165 1.762-.373.524-.207.96-.53 1.305-.974.345-.442.518-1.064.518-1.865 0-.746-.152-1.34-.456-1.783-.303-.44-.69-.78-1.16-1.015-.47-.234-1.01-.394-1.617-.477-.608-.083-1.202-.124-1.782-.124h-4.227v6.673zM148.446.734h11.357c1.492 0 2.907.145 4.248.435 1.34.29 2.514.774 3.523 1.45 1.008.678 1.81 1.59 2.403 2.737.593 1.146.89 2.576.89 4.29 0 2.07-.538 3.833-1.615 5.284-1.077 1.45-2.652 2.37-4.724 2.756l7.46 12.393h-7.75l-6.134-11.73h-3.19v11.73h-6.467V.734zM199.707 18.764c0 1.74-.262 3.344-.787 4.808s-1.305 2.735-2.34 3.813c-1.037 1.077-2.33 1.92-3.877 2.528-1.547.607-3.33.912-5.346.912-2.045 0-3.84-.305-5.388-.912-1.55-.607-2.84-1.45-3.876-2.528s-1.818-2.35-2.342-3.813c-.525-1.464-.787-3.067-.787-4.808V.734h6.465v17.78c0 .913.145 1.756.435 2.53.29.773.698 1.444 1.223 2.01.525.566 1.153 1.01 1.886 1.326.73.318 1.526.477 2.383.477.856 0 1.644-.16 2.362-.477.718-.317 1.34-.76 1.864-1.327.524-.565.933-1.236 1.223-2.01.29-.773.435-1.616.435-2.528V.735h6.465v18.03M128.717 17.336c0-.637.117-1.242.354-1.814.234-.57.562-1.066.982-1.486.42-.42.914-.747 1.486-.983.57-.234 1.176-.35 1.814-.35.637 0 1.24.116 1.813.35.57.236 1.066.564 1.487.983.42.42.746.916.98 1.486.235.572.354 1.177.354 1.814 0 .638-.12 1.242-.353 1.814-.235.57-.562 1.066-.98 1.485-.422.42-.918.747-1.488.982-.572.235-1.176.353-1.813.353-.638 0-1.243-.118-1.814-.353-.572-.235-1.067-.56-1.486-.982-.42-.42-.748-.915-.98-1.485-.238-.572-.355-1.176-.355-1.814M124.19 24.02h18.42v5.94h-18.42v-5.94z"/></g></svg>